<?xml version="1.0" standalone="no"?>
<!DOCTYPE svg PUBLIC "-//W3C//DTD SVG 20010904//EN"
 "http://www.w3.org/TR/2001/REC-SVG-20010904/DTD/svg10.dtd">
<svg version="1.0" xmlns="http://www.w3.org/2000/svg"
 width="603.000000pt" height="194.000000pt" viewBox="0 0 603.000000 194.000000"
 preserveAspectRatio="xMidYMid meet">

<g transform="translate(0.000000,194.000000) scale(0.100000,-0.100000)"
fill="#000000" stroke="none">
<path d="M1935 1639 c-10 -27 -1 -1364 10 -1362 14 4 19 1353 5 1367 -6 6 -11
4 -15 -5z"/>
<path d="M1023 1628 c-6 -7 -71 -119 -146 -248 -191 -333 -542 -941 -594
-1030 l-43 -75 786 -3 c433 -1 789 -1 791 1 2 2 -169 303 -380 668 -211 365
-388 672 -393 682 -9 15 -13 16 -21 5z m69 -206 c81 -140 577 -999 606 -1050
l24 -42 -692 0 -692 0 28 48 c46 77 489 845 577 999 45 79 84 143 87 143 3 0
30 -44 62 -98z"/>
<path d="M1013 1374 c-8 -21 13 -42 28 -27 13 13 5 43 -11 43 -6 0 -13 -7 -17
-16z"/>
<path d="M1013 1254 c-8 -21 13 -42 28 -27 13 13 5 43 -11 43 -6 0 -13 -7 -17
-16z"/>
<path d="M1013 1134 c-8 -21 13 -42 28 -27 13 13 5 43 -11 43 -6 0 -13 -7 -17
-16z"/>
<path d="M1013 1014 c-8 -21 13 -42 28 -27 13 13 5 43 -11 43 -6 0 -13 -7 -17
-16z"/>
<path d="M723 904 c-8 -21 13 -42 28 -27 13 13 5 43 -11 43 -6 0 -13 -7 -17
-16z"/>
<path d="M1013 894 c-8 -21 13 -42 28 -27 13 13 5 43 -11 43 -6 0 -13 -7 -17
-16z"/>
<path d="M1305 900 c-4 -7 -3 -16 3 -22 14 -14 45 -2 40 15 -6 16 -34 21 -43
7z"/>
<path d="M820 810 c0 -13 7 -20 20 -20 13 0 20 7 20 20 0 13 -7 20 -20 20 -13
0 -20 -7 -20 -20z"/>
<path d="M1210 811 c0 -15 6 -21 21 -21 25 0 22 33 -4 38 -12 2 -17 -3 -17
-17z"/>
<path d="M1013 774 c-8 -21 13 -42 28 -27 13 13 5 43 -11 43 -6 0 -13 -7 -17
-16z"/>
<path d="M915 740 c-4 -7 -3 -16 3 -22 14 -14 45 -2 40 15 -6 16 -34 21 -43 7z"/>
<path d="M1110 731 c0 -15 6 -21 21 -21 14 0 19 5 17 17 -5 26 -38 29 -38 4z"/>
<path d="M1013 654 c-6 -16 15 -37 29 -28 4 3 8 14 8 25 0 23 -28 26 -37 3z"/>
<path d="M900 600 c0 -13 7 -20 20 -20 13 0 20 7 20 20 0 13 -7 20 -20 20 -13
0 -20 -7 -20 -20z"/>
<path d="M1125 610 c-4 -7 -3 -16 3 -22 14 -14 45 -2 40 15 -6 16 -34 21 -43
7z"/>
<path d="M784 559 c-9 -15 12 -33 30 -26 9 4 16 13 16 22 0 17 -35 21 -46 4z"/>
<path d="M1240 550 c0 -13 7 -20 20 -20 13 0 20 7 20 20 0 13 -7 20 -20 20
-13 0 -20 -7 -20 -20z"/>
<path d="M1010 520 c0 -13 7 -20 20 -20 13 0 20 7 20 20 0 13 -7 20 -20 20
-13 0 -20 -7 -20 -20z"/>
<path d="M675 510 c-4 -7 -3 -16 3 -22 14 -14 45 -2 40 15 -6 16 -34 21 -43 7z"/>
<path d="M1350 505 c0 -21 30 -31 40 -14 11 17 3 29 -21 29 -10 0 -19 -7 -19
-15z"/>
<path d="M571 470 c-17 -10 -7 -40 13 -40 7 0 16 6 19 14 8 19 -15 37 -32 26z"/>
<path d="M1476 473 c-3 -4 -6 -15 -6 -25 0 -24 33 -21 38 3 3 17 -21 33 -32
22z"/>
<path d="M453 414 c-8 -21 13 -42 28 -27 13 13 5 43 -11 43 -6 0 -13 -7 -17
-16z"/>
<path d="M1583 414 c-8 -21 13 -42 28 -27 13 13 5 43 -11 43 -6 0 -13 -7 -17
-16z"/>
<path d="M1010 390 c0 -13 7 -20 20 -20 13 0 20 7 20 20 0 13 -7 20 -20 20
-13 0 -20 -7 -20 -20z"/>
<path d="M2074 1574 c3 -9 6 -85 6 -170 l0 -154 55 0 55 0 0 44 0 44 110 4
c98 3 112 5 132 26 20 19 23 33 23 98 0 71 -2 77 -28 100 -27 23 -33 24 -194
24 -146 0 -164 -2 -159 -16z m271 -85 c4 -11 4 -31 1 -45 -6 -23 -10 -24 -81
-24 l-75 0 0 45 0 45 74 0 c67 0 75 -2 81 -21z"/>
<path d="M2544 1575 c3 -9 6 -86 6 -171 l0 -154 55 0 55 0 0 55 0 55 34 0 c31
0 93 -37 104 -62 10 -21 77 -50 118 -51 48 0 64 11 64 49 0 15 -8 23 -27 27
-16 4 -43 16 -61 27 l-34 21 25 20 c50 39 58 136 15 176 -17 16 -43 18 -190
21 -155 3 -170 2 -164 -13z m273 -81 c13 -35 -11 -49 -86 -52 l-71 -3 0 36 0
35 75 0 c61 0 77 -3 82 -16z"/>
<path d="M3040 1420 l0 -170 200 0 200 0 -15 36 c-8 20 -15 38 -15 40 0 2 -58
4 -130 4 l-130 0 0 24 c0 31 10 34 113 31 l87 -2 0 38 0 38 -97 3 c-96 3 -98
4 -98 27 l0 23 127 -1 c137 -2 140 -1 130 57 -4 22 -5 22 -188 22 l-184 0 0
-170z"/>
<path d="M3554 1580 c-44 -18 -54 -47 -54 -162 0 -99 2 -109 24 -135 l24 -28
161 0 c177 0 194 5 166 49 -16 25 -20 25 -138 28 l-122 3 0 85 0 85 117 3 117
3 6 29 c4 16 4 34 0 40 -8 12 -270 13 -301 0z"/>
<path d="M3958 1436 c-2 -84 -2 -161 0 -170 3 -12 15 -16 53 -16 l49 0 0 170
0 170 -50 0 -49 0 -3 -154z"/>
<path d="M4195 1578 c-34 -18 -45 -40 -45 -89 0 -36 6 -55 24 -75 22 -27 27
-28 140 -32 112 -4 117 -5 114 -26 -3 -20 -9 -21 -124 -24 l-121 -3 -16 -33
c-8 -19 -13 -37 -10 -40 11 -11 311 -6 336 5 31 14 47 48 47 100 0 46 -12 73
-37 85 -10 5 -67 11 -128 14 -105 5 -110 6 -113 28 -3 18 1 22 25 22 15 1 73
2 127 3 l100 2 7 30 c6 20 4 32 -4 37 -19 12 -299 9 -322 -4z"/>
<path d="M4630 1420 l0 -170 50 0 50 0 0 170 0 170 -50 0 -50 0 0 -170z"/>
<path d="M4890 1583 c-8 -3 -25 -15 -37 -26 -21 -19 -23 -29 -23 -133 0 -105
2 -115 24 -141 24 -27 27 -28 147 -31 204 -6 229 12 229 166 0 156 -20 172
-202 171 -68 0 -130 -3 -138 -6z m228 -151 c2 -46 -2 -79 -9 -88 -8 -10 -34
-14 -85 -14 -86 0 -94 8 -94 90 0 85 7 91 103 88 l82 -3 3 -73z"/>
<path d="M5324 1568 c3 -13 6 -89 6 -170 l0 -148 53 0 52 0 -3 81 c-5 126 -5
126 106 16 96 -95 98 -97 145 -97 l47 0 0 170 0 170 -55 0 -55 0 0 -97 0 -98
-98 98 -97 97 -54 0 c-50 0 -53 -1 -47 -22z"/>
<path d="M2095 1105 c-24 -23 -25 -30 -25 -145 0 -158 1 -159 156 -174 28 -2
76 -16 108 -30 31 -14 84 -31 118 -38 56 -12 61 -11 74 7 21 28 17 54 -8 59
-13 3 -49 10 -80 16 -32 6 -58 13 -58 15 0 3 13 11 30 20 44 23 60 62 60 149
0 85 -12 119 -47 135 -14 6 -83 11 -164 11 -135 0 -141 -1 -164 -25z m246 -55
c15 -9 19 -22 19 -71 0 -51 -4 -64 -25 -85 -22 -22 -32 -25 -88 -22 l-62 3 -3
80 c-2 66 0 82 14 92 21 16 118 17 145 3z"/>
<path d="M2571 978 c3 -84 6 -154 7 -155 1 -1 15 -9 32 -18 42 -22 276 -22
307 0 32 23 43 75 43 208 l0 117 -55 0 -55 0 0 -117 c0 -65 -4 -124 -9 -132
-13 -20 -120 -27 -143 -9 -15 11 -18 32 -19 136 l-1 122 -57 0 -56 0 6 -152z"/>
<path d="M3090 969 c-44 -89 -80 -166 -80 -170 0 -5 25 -9 55 -9 50 0 56 2 70
30 15 29 17 30 93 31 42 0 85 2 95 4 12 2 22 -7 32 -31 14 -33 15 -34 75 -34
l60 0 -13 33 c-8 17 -45 94 -83 170 l-69 137 -77 0 -78 0 -80 -161z m190 29
l29 -63 -56 -3 c-30 -2 -57 -1 -60 2 -5 5 47 126 54 126 2 0 17 -28 33 -62z"/>
<path d="M3550 960 l0 -170 55 0 55 0 0 95 c0 52 3 95 8 95 4 0 50 -43 102
-95 93 -93 95 -95 142 -95 l48 0 0 170 0 170 -55 0 -55 0 0 -95 c0 -52 -2 -95
-4 -95 -2 0 -45 43 -97 95 l-93 95 -53 0 -53 0 0 -170z"/>
<path d="M4020 1095 l0 -34 68 -3 67 -3 3 -132 3 -133 54 0 55 0 0 135 0 135
70 0 70 0 0 35 0 35 -195 0 -195 0 0 -35z"/>
<path d="M2074 654 c3 -9 6 -85 6 -170 l0 -154 55 0 55 0 0 60 c0 47 3 60 15
60 32 0 92 -32 132 -72 37 -36 49 -42 99 -46 60 -5 74 3 74 46 0 14 -6 22 -17
22 -9 0 -37 12 -61 26 l-45 27 26 19 c54 39 60 139 10 178 -23 18 -40 20 -190
20 -147 0 -164 -2 -159 -16z m257 -64 c23 -13 24 -33 3 -54 -11 -11 -35 -16
-80 -16 l-64 0 0 40 0 40 61 0 c33 0 69 -5 80 -10z"/>
<path d="M2572 503 l3 -168 175 -3 c96 -1 185 0 197 3 22 5 22 6 6 40 l-17 35
-129 0 -128 0 3 28 3 27 98 3 98 3 -3 37 -3 37 -98 3 c-95 3 -98 3 -95 25 3
21 8 22 129 25 l127 3 4 29 c3 17 2 32 0 35 -3 3 -88 5 -189 5 l-183 0 2 -167z"/>
<path d="M3050 650 c-25 -25 -34 -61 -27 -107 10 -61 24 -67 155 -73 117 -5
117 -5 117 -30 l0 -25 -121 0 -121 0 -15 -36 -16 -37 30 -6 c49 -10 260 -7
299 4 43 12 59 42 59 110 0 41 -4 52 -26 69 -23 18 -41 21 -125 21 -110 0
-129 4 -129 31 0 26 36 33 151 26 55 -3 101 -2 103 1 2 4 7 22 11 40 l7 32
-166 0 c-152 0 -168 -2 -186 -20z"/>
<path d="M3500 500 l0 -170 183 0 c100 0 188 4 195 9 12 7 11 14 -2 40 l-17
31 -124 0 -125 0 0 30 0 30 96 0 95 0 -3 38 -3 37 -92 3 c-91 3 -93 3 -93 27
l0 25 130 0 130 0 0 35 0 35 -185 0 -185 0 0 -170z"/>
<path d="M4002 505 c-45 -91 -82 -167 -82 -170 0 -3 25 -5 55 -5 53 0 57 2 76
35 l21 35 89 0 89 0 17 -35 c16 -34 18 -35 75 -35 32 0 58 2 58 5 0 3 -37 79
-82 170 l-83 165 -75 0 -75 0 -83 -165z m189 38 c13 -32 26 -61 27 -65 2 -4
-24 -8 -58 -8 -46 0 -61 3 -57 13 36 87 51 117 56 117 4 0 18 -26 32 -57z"/>
<path d="M4466 568 c2 -57 3 -134 4 -171 l0 -68 53 3 52 3 3 59 c3 54 4 58 25
52 12 -3 27 -6 34 -6 7 0 35 -21 64 -46 60 -53 85 -64 143 -64 37 0 45 4 50
23 10 36 7 47 -11 47 -10 0 -39 13 -66 28 -47 28 -47 28 -23 41 52 28 65 133
21 176 -24 25 -27 25 -188 25 l-163 0 2 -102z m262 -2 c5 -38 -10 -46 -85 -46
l-63 0 0 40 0 41 73 -3 c71 -3 72 -3 75 -32z"/>
<path d="M5004 658 c-38 -18 -49 -54 -49 -157 1 -110 11 -136 60 -157 55 -23
306 -16 331 9 3 2 -3 17 -12 33 l-16 29 -112 -3 c-62 -1 -118 2 -126 7 -11 8
-15 30 -15 85 0 41 4 78 8 83 5 4 60 7 122 7 l113 -1 6 30 c3 16 6 33 6 38 0
13 -290 10 -316 -3z"/>
<path d="M5412 503 l3 -168 52 -3 52 -3 3 68 3 68 90 0 90 0 3 -68 3 -68 52 3
52 3 3 168 2 167 -54 0 -55 0 -3 -62 -3 -63 -92 -3 -93 -3 0 66 0 65 -55 0
-55 0 2 -167z"/>
</g>
</svg>
